<svg width="36" height="36" viewBox="0 0 36 36" fill="none" xmlns="http://www.w3.org/2000/svg">
<path d="M18 36C13.192 36 8.67185 34.1277 5.27203 30.728C1.87221 27.3282 0 22.808 0 18C0 13.192 1.87228 8.67185 5.27203 5.27203C8.67178 1.87221 13.192 0 18 0C22.808 0 27.3281 1.87228 30.728 5.27203C34.1278 8.67178 36 13.192 36 18C36 22.808 34.1277 27.3281 30.728 30.728C27.3282 34.1278 22.808 36 18 36ZM18 2.25C9.31542 2.25 2.25 9.31542 2.25 18C2.25 26.6846 9.31542 33.75 18 33.75C26.6846 33.75 33.75 26.6846 33.75 18C33.75 9.31542 26.6846 2.25 18 2.25Z" fill="black"/>
<path d="M18 25.875C17.3787 25.875 16.875 25.3713 16.875 24.75C16.875 21.9104 17.9808 19.2407 19.9888 17.2327C21.2454 15.9761 21.9375 14.3053 21.9375 12.5281C21.9375 10.5827 20.3548 9 18.4094 9H18.1531C16.2077 9 14.625 10.5827 14.625 12.5281V12.9375C14.625 13.5588 14.1213 14.0625 13.5 14.0625C12.8787 14.0625 12.375 13.5588 12.375 12.9375V12.5281C12.375 9.342 14.967 6.75 18.1531 6.75H18.4094C21.5955 6.75 24.1875 9.342 24.1875 12.5281C24.1875 14.9062 23.2614 17.1421 21.5797 18.8238C19.9967 20.4067 19.125 22.5114 19.125 24.75C19.125 25.3713 18.6213 25.875 18 25.875Z" fill="black"/>
<path d="M18.0014 30.375C17.3801 30.375 16.8761 29.8713 16.8761 29.25C16.8761 28.6287 17.3794 28.125 18.0007 28.125H18.0014C18.6227 28.125 19.1264 28.6287 19.1264 29.25C19.1264 29.8713 18.6227 30.375 18.0014 30.375Z" fill="black"/>
</svg>
