<svg width="48" height="48" viewBox="0 0 48 48" fill="none" xmlns="http://www.w3.org/2000/svg">
<g clip-path="url(#clip0)">
<path d="M17.3129 38.5938C16.9791 38.6559 16.8333 38.8126 16.8752 39.0623C16.9167 39.3122 17.1042 39.3958 17.4375 39.3122C17.7713 39.2291 17.9169 39.0829 17.875 38.8747C17.8336 38.6457 17.6461 38.5518 17.3129 38.5938Z" fill="#EC058E"/>
<path d="M15.5314 38.844C15.198 38.844 15.0314 38.958 15.0314 39.1876C15.0314 39.4584 15.2086 39.5727 15.5626 39.5311C15.896 39.5311 16.0628 39.4165 16.0628 39.1876C16.0628 38.9171 15.8856 38.8021 15.5314 38.844Z" fill="#EC058E"/>
<path d="M13.094 38.7495C13.0108 38.9788 13.1463 39.1347 13.5002 39.2184C13.8127 39.3428 14.0107 39.2806 14.0938 39.0308C14.1565 38.8019 14.0209 38.6357 13.6877 38.5308C13.3751 38.4478 13.1773 38.5197 13.094 38.7495Z" fill="#EC058E"/>
<path d="M16.7718 46.725C16.801 46.7223 16.827 46.7195 16.85 46.7167C16.8506 46.7166 16.8512 46.7165 16.8518 46.7164C16.8564 46.7159 16.8609 46.7153 16.8652 46.7147L16.8675 46.7314L16.8678 46.7336L17.031 47.9537C17.26 47.9221 17.489 47.7866 17.7183 47.5468C17.9477 47.3074 18.062 46.9584 18.062 46.5002C18.062 46.4468 18.0579 45.9168 18.0503 44.9114L18.0462 44.3749M16.7718 46.725C16.7776 46.7197 16.7841 46.7137 16.7912 46.7068M16.7718 46.725C16.6132 46.7394 16.3621 46.7501 15.9999 46.7501H8.99994C6.85407 46.7501 5.05142 46.0026 3.52427 44.4755C1.99745 42.9487 1.25 41.1463 1.25 39.0002V8.99994C1.25 6.85404 1.99739 5.05152 3.52416 3.52438C3.52419 3.52435 3.52421 3.52432 3.52424 3.52429C3.52428 3.52426 3.52431 3.52422 3.52435 3.52418C5.05162 1.99738 6.85417 1.25 8.99994 1.25H38.9998C41.1464 1.25 42.9482 1.99738 44.4754 3.52427C46.0021 5.05101 46.7497 6.85386 46.7499 8.99994C46.7499 8.99997 46.7499 9.00001 46.7499 9.00005V38.9988C46.7499 41.1447 46.0024 42.9473 44.4753 44.4745L44.4751 44.4747C42.9488 46.0016 41.1463 46.7491 39.0004 46.7491H32.0004C31.6822 46.7491 31.4852 46.7385 31.3809 46.7262L31.3794 46.7261C31.3484 46.7225 31.2991 46.7135 31.2285 46.6939C31.2228 46.6435 31.2188 46.5792 31.2188 46.4992V39.0302C31.2188 37.7308 31.0147 36.5458 30.5564 35.5338L16.7718 46.725ZM16.7912 46.7068C16.7902 46.7104 16.7892 46.7134 16.7884 46.7158C16.7871 46.7198 16.7864 46.7216 16.7865 46.7216C16.7866 46.7217 16.7941 46.7048 16.8148 46.683C16.8063 46.6919 16.7984 46.6998 16.7912 46.7068ZM16.7912 46.7068C16.799 46.6786 16.812 46.6141 16.812 46.5002L16.8119 46.4966L16.8119 46.4869L16.8117 46.4542L16.811 46.3411L16.808 45.9314L16.7962 44.3847M16.7962 44.3847L18.0462 44.3749M16.7962 44.3847L16.7962 44.3844L18.0462 44.3749M16.7962 44.3847C16.7911 43.7258 16.7872 43.1328 16.7846 42.606C16.4056 42.6365 15.9954 42.6467 15.5584 42.6402C14.787 42.6285 13.9946 42.5483 13.1832 42.4017L13.1832 42.4017C12.2273 42.2289 11.3493 41.831 10.557 41.2309L10.5559 41.2301C9.72003 40.5956 9.12285 39.7639 8.77168 38.7675L8.4781 38.0921C8.3231 37.7359 8.05732 37.2933 7.64899 36.7621L7.64851 36.7614C7.27178 36.2707 6.96886 36.0438 6.76352 35.9505L6.65296 35.9002L6.55413 35.8296L6.33533 35.6733L6.33524 35.6733C6.10042 35.5055 5.89181 35.3099 5.70743 35.0952L5.70552 35.093C5.51534 34.8705 5.34754 34.6191 5.22632 34.3371L5.22537 34.3349C5.09052 34.0196 5.02832 33.5885 5.21995 33.1466C5.39442 32.7442 5.70211 32.5156 5.91707 32.3945L5.91926 32.3932C6.39646 32.1255 6.99619 32.0934 7.43715 32.0934H7.53024L7.62231 32.1072L8.24708 32.2008L8.27695 32.2052L8.30657 32.2111C8.966 32.3428 9.64531 32.7013 10.3104 33.1522C11.0837 33.6765 11.7138 34.356 12.1992 35.1731L12.207 35.1864L12.2146 35.1998C12.6167 35.9164 13.0679 36.4041 13.5484 36.7219L13.5493 36.7224C14.0588 37.06 14.5051 37.1869 14.9056 37.1869C15.5335 37.1869 16.0375 37.1389 16.4312 37.0574C16.6228 37.0174 16.8071 36.9683 16.9843 36.9105C17.0924 36.4256 17.2414 35.9666 17.4345 35.538C16.9714 35.4505 16.5271 35.3508 16.102 35.2386L16.1018 35.2386C15.0376 34.9576 13.9616 34.5081 12.8757 33.9033C11.7354 33.2686 10.768 32.469 9.99154 31.4978L9.99148 31.4978C9.2028 30.5112 8.59408 29.2672 8.13527 27.8118L8.13527 27.8118C7.66186 26.31 7.4369 24.6162 7.4369 22.7481C7.4369 20.1927 8.20207 17.9384 9.73612 16.0407C9.11743 13.9891 9.3143 11.7815 10.2097 9.4822L10.4283 8.92069L11.0038 8.742C12.0457 8.4185 13.2953 8.7111 14.5211 9.19507L14.5213 9.19515C15.7241 9.67028 16.6724 10.102 17.3166 10.4902L17.3168 10.4903C17.6539 10.6936 17.956 10.8811 18.2219 11.0522C20.0967 10.5784 22.0234 10.3423 23.9998 10.3423C25.9818 10.3423 27.9142 10.5798 29.7943 11.0564L30.5202 10.5979L30.5264 10.594L30.5326 10.5902C31.4268 10.0399 32.4597 9.54853 33.6219 9.11021C34.7802 8.67321 35.9687 8.42201 36.9769 8.74608L37.5378 8.9264L37.7557 9.47382C38.6711 11.7735 38.8817 13.9845 38.2634 16.0408C39.7975 17.9385 40.563 20.1928 40.563 22.7485C40.563 24.617 40.338 26.3148 39.8655 27.8247C39.4064 29.293 38.7904 30.5451 37.9818 31.5272C37.1971 32.4814 36.2284 33.2711 35.0938 33.9033L35.0931 33.9036C34.0081 34.5073 32.9322 34.9579 31.8666 35.2384C31.8663 35.2385 31.866 35.2386 31.8656 35.2386L31.5476 34.0298C31.0237 34.168 30.4634 34.2873 29.8665 34.3875L18.0462 44.3749M10.9678 30.7172C10.3013 29.8834 9.7542 28.7897 9.32744 27.436L13.4837 32.8111C12.473 32.2485 11.6345 31.5511 10.9678 30.7172ZM11.1245 35.8115C11.6039 36.6659 12.1815 37.3165 12.8589 37.7645L9.60895 34.1868C10.2234 34.6034 10.7286 35.145 11.1245 35.8115ZM7.52638 33.3568C7.52473 33.3535 7.52365 33.3511 7.52301 33.3496L7.51158 33.3545L7.51605 33.3552L7.52396 33.3518C7.52465 33.3534 7.52534 33.3551 7.52602 33.3567L7.52638 33.3568Z" stroke="#EC058E" stroke-width="2.5"/>
<path d="M9.49995 34.9376C9.35427 35.0413 9.37507 35.208 9.56256 35.4372C9.77118 35.6454 9.93766 35.6768 10.0628 35.5308C10.2085 35.427 10.1877 35.2603 9.99983 35.0307C9.79165 34.8435 9.62506 34.8121 9.49995 34.9376Z" fill="#EC058E"/>
<path d="M8.46897 34.1562C8.40658 34.3023 8.47947 34.4274 8.68777 34.5312C8.85425 34.6357 8.99008 34.6151 9.09395 34.469C9.15634 34.3229 9.08344 34.1978 8.87515 34.0933C8.66686 34.0307 8.53146 34.0517 8.46897 34.1562Z" fill="#EC058E"/>
<path d="M10.469 36.1564C10.2813 36.2602 10.2813 36.4482 10.469 36.7187C10.6565 36.9899 10.8332 37.0626 11.0002 36.9374C11.1878 36.7914 11.1878 36.5935 11.0002 36.3434C10.8337 36.0732 10.6565 36.01 10.469 36.1564Z" fill="#EC058E"/>
<path d="M11.563 37.5622C11.3754 37.7292 11.4167 37.9263 11.688 38.1563C11.9376 38.4058 12.146 38.4372 12.3127 38.2492C12.4795 38.083 12.4378 37.8852 12.1877 37.656C11.9381 37.4064 11.7297 37.3749 11.563 37.5622Z" fill="#EC058E"/>
</g>
<defs>
<clipPath id="clip0">
<rect width="48" height="48" fill="white"/>
</clipPath>
</defs>
</svg>
