<svg width="48" height="48" viewBox="0 0 48 48" fill="none" xmlns="http://www.w3.org/2000/svg">
<g clip-path="url(#clip0)">
<path d="M17.3128 38.5938C16.9791 38.6559 16.8333 38.8126 16.8751 39.0624C16.9167 39.3122 17.1042 39.3958 17.4375 39.3122C17.7712 39.2291 17.9169 39.0829 17.875 38.8747C17.8336 38.6457 17.6461 38.5518 17.3128 38.5938Z" fill="#EC058E"/>
<path d="M15.5314 38.844C15.198 38.844 15.0314 38.9579 15.0314 39.1876C15.0314 39.4584 15.2086 39.5726 15.5626 39.531C15.896 39.531 16.0628 39.4164 16.0628 39.1876C16.0628 38.9171 15.8856 38.8021 15.5314 38.844Z" fill="#EC058E"/>
<path d="M13.094 38.7495C13.0108 38.9788 13.1463 39.1347 13.5002 39.2184C13.8127 39.3428 14.0107 39.2806 14.0938 39.0308C14.1565 38.8019 14.0209 38.6357 13.6877 38.5308C13.3751 38.4478 13.1773 38.5197 13.094 38.7495Z" fill="#EC058E"/>
<path d="M16.9955 46.8557L16.9963 46.8549C16.9966 46.8546 17.0102 46.8418 17.026 46.7938C17.0431 46.7415 17.062 46.6487 17.062 46.5002C17.062 46.451 17.0579 45.9233 17.0502 44.9091L17.0462 44.3828C17.0462 44.3827 17.0462 44.3826 17.0462 44.3825C17.0401 43.6071 17.0358 42.9232 17.0333 42.3311C16.5939 42.3803 16.1012 42.3983 15.5622 42.3902C14.8055 42.3788 14.0268 42.3001 13.2277 42.1557C12.3129 41.9903 11.4709 41.6095 10.7079 41.0316L10.707 41.031C9.90909 40.4253 9.33961 39.6316 9.00455 38.6761L8.70734 37.9923C8.70728 37.9922 8.70722 37.9921 8.70716 37.9919C8.54148 37.6113 8.26332 37.1511 7.84721 36.6097L7.84682 36.6092C7.45584 36.0999 7.12289 35.8392 6.86696 35.7229L6.77851 35.6827L6.69945 35.6262L6.48065 35.4699L6.48058 35.4698C6.26358 35.3148 6.06961 35.1333 5.89709 34.9324L5.89556 34.9306C5.71844 34.7233 5.56546 34.493 5.45599 34.2384L5.45523 34.2366C5.34109 33.9698 5.29081 33.6116 5.44931 33.246C5.59409 32.9121 5.85118 32.7186 6.03984 32.6122L6.04157 32.6113C6.4567 32.3784 6.99685 32.3434 7.43715 32.3434H7.51162L7.58528 32.3544L8.21005 32.448L8.23394 32.4516L8.25763 32.4563C8.86853 32.5782 9.51504 32.915 10.1701 33.3591C10.9116 33.8619 11.5167 34.5138 11.9842 35.3008L11.9905 35.3114L11.9966 35.3221C12.4141 36.0663 12.8907 36.5866 13.4105 36.9304L13.4112 36.9309C13.9542 37.2906 14.4477 37.4369 14.9056 37.4369C15.5458 37.4369 16.0679 37.3881 16.483 37.302C16.7329 37.2498 16.9714 37.1827 17.1992 37.1013C17.3289 36.4671 17.5281 35.8807 17.8027 35.3506C17.2279 35.2508 16.6821 35.1331 16.1657 34.9969L16.1656 34.9969C15.1247 34.722 14.0681 34.2813 12.9973 33.6849L16.9955 46.8557ZM16.9955 46.8557C16.9317 46.9224 16.8881 46.9538 16.8675 46.9664M16.9955 46.8557L16.8675 46.9664M10.1868 31.3417L10.1867 31.3417C9.42249 30.3856 8.82611 29.1717 8.3737 27.7367L9.2699 27.4541L8.3737 27.7366C7.90958 26.2643 7.6869 24.5968 7.6869 22.7481C7.6869 20.2012 8.46185 17.9678 10.0148 16.095C9.36851 14.0719 9.54435 11.8797 10.4426 9.57292L10.6175 9.12371L11.0779 8.98076C12.0323 8.68443 13.2112 8.94667 14.4293 9.4276L14.4294 9.42766C15.6292 9.90159 16.5617 10.3272 17.1876 10.7044L17.1877 10.7044C17.563 10.9307 17.8935 11.1366 18.1778 11.3215C20.0653 10.8349 22.0066 10.5923 23.9998 10.5923C25.9981 10.5923 27.9445 10.8362 29.8367 11.3253L30.6537 10.8093L30.6636 10.8031L30.6636 10.8031C31.5415 10.2628 32.5594 9.77811 33.71 9.34417L10.1868 31.3417ZM10.1868 31.3417C10.9413 32.2853 11.8828 33.0644 12.9971 33.6847L10.1868 31.3417ZM37.3491 9.12834L37.5234 9.56628C38.4418 11.8733 38.6309 14.0684 37.9848 16.0952C39.5378 17.968 40.313 20.2013 40.313 22.7485C40.313 24.5976 40.0903 26.2695 39.6268 27.7503M37.3491 9.12834L36.8438 16.3109C38.4896 18.0817 39.313 20.2278 39.313 22.7485C39.313 24.5195 39.0994 26.0874 38.6725 27.4516C38.2458 28.8162 37.694 29.9103 37.0164 30.7332M37.3491 9.12834L36.9004 8.98409M37.3491 9.12834L36.9004 8.98409M39.6268 27.7503L38.6743 27.4522L39.6269 27.7501C39.6269 27.7502 39.6268 27.7502 39.6268 27.7503ZM39.6268 27.7503C39.1742 29.1978 38.5711 30.4182 37.7887 31.3684M37.7887 31.3684L37.0164 30.7332M37.7887 31.3684C37.7886 31.3686 37.7885 31.3687 37.7883 31.3689L37.0164 30.7332M37.7887 31.3684C37.0256 32.2963 36.0818 33.0665 34.9721 33.6849L34.9716 33.6852C33.9015 34.2806 32.8449 34.7224 31.8028 34.9967M37.0164 30.7332C36.3395 31.5562 35.4956 32.2484 34.4854 32.8113L31.8028 34.9967M30.1873 35.3471C30.7544 35.2479 31.293 35.1312 31.8028 34.9967M30.1873 35.3471L31.802 34.9969C31.8023 34.9968 31.8025 34.9967 31.8028 34.9967M30.1873 35.3471C30.7262 36.3774 30.9688 37.6259 30.9688 39.0302V46.4992C30.9688 46.7061 30.9931 46.8266 31.0122 46.8881C31.1703 46.9425 31.2798 46.9661 31.3505 46.9744L31.3517 46.9745C31.4706 46.9885 31.6792 46.9991 32.0004 46.9991H39.0004C41.2129 46.9991 43.079 46.2251 44.6519 44.6514L44.6521 44.6513C46.2259 43.0774 46.9999 41.2113 46.9999 38.9988V9.00003C46.9999 9 46.9999 8.99997 46.9999 8.99994C46.9997 6.78729 46.2256 4.92097 44.6522 3.34756C43.0784 1.77397 41.213 1 38.9998 1H8.99994C6.78754 1 4.92149 1.77395 3.34756 3.34742C3.34751 3.34748 3.34746 3.34753 3.3474 3.34758M30.1873 35.3471L15.9999 48.0001H8.99994C6.52101 48.0001 4.40086 47.1198 2.64039 45.3594C0.880238 43.5992 0 41.4794 0 39.0002V8.99994C0 6.52089 0.880238 4.40086 2.64039 2.64038L3.3474 3.34758M3.3474 3.34758C1.77396 4.92139 1 6.78741 1 8.99994V39.0002C1 41.2129 1.774 43.0788 3.34749 44.6523C4.92131 46.2261 6.78746 47.0001 8.99994 47.0001H15.9999C16.4194 47.0001 16.7011 46.986 16.8675 46.9664M3.3474 3.34758L16.8675 46.9664M36.9004 8.98409C35.9771 8.68731 34.8576 8.91121 33.7101 9.34413L36.9004 8.98409Z" stroke="#EC058E" stroke-width="2"/>
<path d="M9.49995 34.9375C9.35427 35.0413 9.37507 35.208 9.56256 35.4372C9.77118 35.6454 9.93766 35.6768 10.0628 35.5308C10.2085 35.427 10.1877 35.2603 9.99983 35.0307C9.79165 34.8435 9.62506 34.8121 9.49995 34.9375Z" fill="#EC058E"/>
<path d="M8.46893 34.1562C8.40655 34.3023 8.47944 34.4274 8.68774 34.5312C8.85422 34.6357 8.99005 34.6151 9.09392 34.469C9.15631 34.3229 9.08341 34.1978 8.87512 34.0933C8.66683 34.0307 8.53143 34.0517 8.46893 34.1562Z" fill="#EC058E"/>
<path d="M10.469 36.1564C10.2813 36.2602 10.2813 36.4482 10.469 36.7187C10.6565 36.9899 10.8332 37.0626 11.0002 36.9374C11.1878 36.7914 11.1878 36.5935 11.0002 36.3434C10.8337 36.0732 10.6565 36.0099 10.469 36.1564Z" fill="#EC058E"/>
<path d="M11.563 37.5622C11.3754 37.7292 11.4167 37.9263 11.688 38.1563C11.9376 38.4058 12.146 38.4372 12.3127 38.2492C12.4795 38.083 12.4378 37.8852 12.1877 37.656C11.9381 37.4064 11.7297 37.3749 11.563 37.5622Z" fill="#EC058E"/>
</g>
<defs>
<clipPath id="clip0">
<rect width="48" height="48" fill="white"/>
</clipPath>
</defs>
</svg>
