<svg width="48" height="48" viewBox="0 0 48 48" fill="none" xmlns="http://www.w3.org/2000/svg">
<path d="M37.9783 0H10.0217C4.49569 0 0 4.49569 0 10.0217V37.9782C0 43.5043 4.49569 48 10.0217 48H37.9782C43.5043 48 48 43.5043 48 37.9783V10.0217C48 4.49569 43.5043 0 37.9783 0V0ZM10.0217 45.1875C6.0465 45.1875 2.8125 41.9535 2.8125 37.9783V19.157H10.2675C9.48356 20.9711 9.04819 22.9697 9.04819 25.0684C9.04819 33.3128 15.7555 40.0202 24 40.0202C32.2445 40.0202 38.9518 33.3128 38.9518 25.0684C38.9518 22.9698 38.5163 20.9711 37.7325 19.157H45.1875V37.9783C45.1875 41.9535 41.9535 45.1875 37.9783 45.1875H10.0217ZM37.9783 2.8125C41.9535 2.8125 45.1875 6.0465 45.1875 10.0217V16.3444H36.1355C33.4182 12.5751 28.9911 10.1164 24 10.1164C19.0089 10.1164 14.5818 12.5751 11.8645 16.3444H2.8125V10.0217C2.8125 6.0465 6.0465 2.8125 10.0217 2.8125H37.9783ZM36.1393 25.0684C36.1393 31.762 30.6937 37.2077 24 37.2077C17.3063 37.2077 11.8607 31.762 11.8607 25.0684C11.8607 18.3747 17.3063 12.929 24 12.929C30.6937 12.929 36.1393 18.3746 36.1393 25.0684Z" fill="#EC058E"/>
<path d="M37.2465 7.96875H40.059V10.7812H37.2465V7.96875Z" fill="#EC058E"/>
<path d="M15.4576 25.0684C15.4576 29.7786 19.2897 33.6106 23.9999 33.6106C28.7102 33.6106 32.5423 29.7786 32.5423 25.0684C32.5423 20.3581 28.7102 16.5261 23.9999 16.5261C19.2897 16.5261 15.4576 20.358 15.4576 25.0684ZM29.7298 25.0684C29.7298 28.2278 27.1593 30.7981 23.9999 30.7981C20.8406 30.7981 18.2701 28.2278 18.2701 25.0684C18.2701 21.909 20.8406 19.3385 23.9999 19.3385C27.1593 19.3385 29.7298 21.9089 29.7298 25.0684Z" fill="#EC058E"/>
</svg>
