<svg width="52" height="52" viewBox="0 0 52 52" fill="none" xmlns="http://www.w3.org/2000/svg">
<g clip-path="url(#clip0)">
<path d="M50.5182 26.9102C50.5979 26.8072 50.6658 26.6989 50.715 26.5829C50.716 26.5798 50.7189 26.5769 50.7209 26.5738C50.7215 26.5733 50.7215 26.5723 50.7215 26.5712C50.7717 26.4475 50.8004 26.3183 50.817 26.1883C50.8204 26.1569 50.8237 26.1261 50.8253 26.095C50.8331 25.9661 50.8305 25.8371 50.8056 25.7092C50.8051 25.7056 50.803 25.7025 50.8025 25.6988C50.7774 25.5764 50.7326 25.458 50.6761 25.3436C50.6624 25.3148 50.6482 25.2876 50.6321 25.2602C50.5669 25.1462 50.4923 25.0364 50.3952 24.9393L42.9706 17.5147C42.3851 16.9292 41.4347 16.9292 40.8492 17.5147C40.2638 18.1002 40.2638 19.0506 40.8492 19.636L45.7128 24.4996H33.0517C32.7138 21.4614 31.3732 18.6453 29.182 16.4541C23.9186 11.1906 15.3535 11.1906 10.0901 16.4541C4.82668 21.7175 4.82668 30.2825 10.0901 35.5459C15.3535 40.8094 23.9186 40.8094 29.182 35.5459C31.3722 33.3557 32.7128 30.5407 33.0512 27.4998H45.7134L40.8492 32.364C40.2638 32.9495 40.2638 33.8998 40.8492 34.4853C41.4347 35.0708 42.3851 35.0708 42.9706 34.4853L50.3952 27.0607C50.4175 27.0384 50.4335 27.012 50.454 26.9889C50.4768 26.963 50.4975 26.9371 50.5182 26.9102ZM12.2114 33.4246C8.11716 29.3304 8.11716 22.6696 12.2114 18.5754C16.3057 14.4811 22.9664 14.4811 27.0607 18.5754C29.0429 20.5576 30.1375 23.1956 30.1424 25.9972C30.1375 28.8044 29.0429 31.4424 27.0607 33.4246C22.9664 37.5189 16.3057 37.5189 12.2114 33.4246V33.4246Z" fill="#363636"/>
</g>
<defs>
<clipPath id="clip0">
<rect width="36" height="36" fill="white" transform="translate(26 0.544159) rotate(45)"/>
</clipPath>
</defs>
</svg>
