<svg width="416" height="427" viewBox="0 0 416 427" fill="none" xmlns="http://www.w3.org/2000/svg">
<path d="M411.8 269.44L366.787 234.133C367.64 227.306 368.28 220.373 368.28 213.333C368.28 206.293 367.64 199.36 366.787 192.533L411.907 157.226C415.96 154.026 417.134 148.266 414.467 143.573L371.8 69.653C369.133 65.066 363.587 63.146 358.787 65.066L305.667 86.506C294.68 78.079 282.627 70.933 269.614 65.493L261.614 8.96C260.653 3.947 256.28 0 250.947 0H165.614C160.281 0 155.907 3.947 155.054 8.96L147.054 65.493C134.041 70.933 121.987 77.973 111.001 86.506L57.881 65.066C53.081 63.253 47.534 65.066 44.868 69.653L2.2 143.573C-0.467001 148.16 0.707 153.92 4.76 157.226L49.773 192.533C48.92 199.36 48.28 206.293 48.28 213.333C48.28 220.373 48.92 227.306 49.773 234.133L4.76 269.44C0.707 272.64 -0.467001 278.4 2.2 283.093L44.867 357.013C47.534 361.6 53.08 363.52 57.88 361.6L111 340.16C121.987 348.587 134.04 355.733 147.053 361.173L155.053 417.706C155.906 422.719 160.28 426.666 165.613 426.666H250.946C256.279 426.666 260.653 422.719 261.506 417.706L269.506 361.173C282.519 355.733 294.573 348.693 305.559 340.16L358.679 361.6C363.479 363.413 369.026 361.6 371.692 357.013L414.359 283.093C417.027 278.507 415.853 272.747 411.8 269.44ZM208.28 288C167 288 133.613 254.613 133.613 213.333C133.613 172.053 167 138.667 208.28 138.667C249.56 138.667 282.947 172.054 282.947 213.334C282.947 254.614 249.56 288 208.28 288Z" fill="black"/>
</svg>
