<svg width="37" height="48" viewBox="0 0 37 48" fill="none" xmlns="http://www.w3.org/2000/svg">
<path fill-rule="evenodd" clip-rule="evenodd" d="M32.3376 14.1478L34.9696 14.4824C36.1259 14.6212 37 15.6063 36.9985 16.7733V20.2267C36.9985 21.3937 36.1243 22.3788 34.9635 22.5176L32.3347 22.8525C32.0813 23.6612 31.7556 24.452 31.3574 25.2145L32.984 27.3075C33.7085 28.2418 33.6237 29.5568 32.7882 30.3677L30.36 32.7959C29.5584 33.6237 28.2418 33.7085 27.3091 32.984L25.2105 31.3542C23.6329 32.1757 21.9347 32.6879 20.2067 32.8909V37.746H23.6201C24.5627 37.746 25.3267 38.5099 25.3267 39.4521C25.3267 40.3944 24.5627 41.1583 23.6201 41.1583H20.2067V45.9644C20.2067 46.9066 19.4426 47.6705 18.5 47.6705C17.5574 47.6705 16.7933 46.9066 16.7932 45.9644V41.1583H13.3799C12.4373 41.1583 11.6733 40.3944 11.6733 39.4521C11.6733 38.5099 12.4373 37.746 13.3799 37.746H16.7932V32.8908C15.0649 32.6878 13.3663 32.1755 11.7884 31.3537L9.69246 32.9824C8.75821 33.7055 7.44317 33.6222 6.63225 32.7882L4.20413 30.36C3.37625 29.5584 3.29146 28.2418 4.01604 27.3091L5.64261 25.2146C5.24447 24.4521 4.9187 23.6613 4.66531 22.8526L2.03038 22.5176C0.874125 22.3788 0 21.3937 0 20.2267V16.7733C0 15.6063 0.874125 14.6212 2.035 14.4824L4.66235 14.1479C4.91555 13.3378 5.24135 12.5457 5.63974 11.7819L4.01604 9.69246C3.29146 8.75821 3.37625 7.44162 4.21183 6.63071L6.63996 4.20412C7.44317 3.37625 8.75975 3.293 9.69092 4.01604L11.7815 5.64068C12.5454 5.24231 13.3376 4.91648 14.1477 4.6632L14.4824 2.03038C14.6212 0.874125 15.6063 0 16.7733 0H20.2267C21.3937 0 22.3788 0.874125 22.5176 2.035L22.8522 4.66316C23.6624 4.91643 24.4545 5.24226 25.2184 5.64063L27.3075 4.01604C28.2418 3.293 29.5584 3.37625 30.3678 4.21183L32.7959 6.63996C33.6238 7.44163 33.7085 8.75821 32.984 9.69092L31.3602 11.7818C31.7586 12.5456 32.0844 13.3377 32.3376 14.1478ZM10.7917 18.5C10.7917 22.7504 14.2496 26.2083 18.5 26.2083C22.7504 26.2083 26.2083 22.7504 26.2083 18.5C26.2083 14.2496 22.7504 10.7917 18.5 10.7917C14.2496 10.7917 10.7917 14.2496 10.7917 18.5Z" fill="black"/>
</svg>
